<svg xmlns="http://www.w3.org/2000/svg" version="1.1" xmlns:xlink="http://www.w3.org/1999/xlink" width="512" height="512" x="0" y="0" viewBox="0 0 379.5 379.5" style="enable-background:new 0 0 512 512" xml:space="preserve" class=""><g><path d="m81.425 332.434-18.563 28.563c-3.593 5.569-2.036 12.994 3.533 16.587 2.036 1.317 4.252 1.916 6.527 1.916 3.952 0 7.785-1.916 10.06-5.449l18.144-27.905c25.988 15.449 56.288 24.372 88.624 24.372 32.396 0 62.695-8.922 88.624-24.431l18.084 27.905c2.275 3.533 6.168 5.449 10.06 5.449 2.216 0 4.491-.599 6.527-1.916 5.569-3.593 7.126-11.018 3.533-16.587l-18.503-28.563c39.761-31.797 65.33-80.72 65.33-135.511 0-95.75-77.905-173.655-173.655-173.655S16.095 101.113 16.095 196.863c0 54.791 25.569 103.714 65.33 135.571zM189.75 47.16c82.576 0 149.703 67.127 149.703 149.703S272.326 346.566 189.75 346.566 40.047 279.439 40.047 196.863 107.174 47.16 189.75 47.16z" fill="#c16400" opacity="1" data-original="#000000" class=""></path><path d="M229.751 247.822c2.275 1.976 5.09 2.934 7.904 2.934a12.03 12.03 0 0 0 9.042-4.072c4.371-4.97 3.832-12.515-1.138-16.886l-43.833-38.384V95.065c0-6.587-5.389-11.976-11.976-11.976s-11.976 5.389-11.976 11.976v101.798c0 3.473 1.497 6.767 4.072 9.042zM40.047 62.31c3.114 0 6.228-1.198 8.563-3.593C62.862 44.166 79.03 32.01 96.575 22.549c5.808-3.114 8.024-10.359 4.91-16.228-3.114-5.808-10.359-8.024-16.228-4.91-19.76 10.599-37.844 24.192-53.832 40.54-4.611 4.731-4.551 12.335.18 16.946 2.394 2.276 5.448 3.413 8.442 3.413zM282.925 22.549c17.605 9.401 33.713 21.617 47.965 36.168 2.335 2.395 5.449 3.593 8.563 3.593a12.03 12.03 0 0 0 8.383-3.413c4.731-4.611 4.79-12.216.18-16.946-15.928-16.288-34.072-29.941-53.833-40.539-5.868-3.114-13.114-.898-16.228 4.91-3.054 5.868-.898 13.113 4.97 16.227z" fill="#c16400" opacity="1" data-original="#000000" class=""></path></g></svg>